<svg xmlns="http://www.w3.org/2000/svg" viewBox="0 0 547 344" width="547" height="344" role="img" aria-label="Mad Dog GK150K — 5×3 + 3 key stream deck">
  <title>Mad Dog GK150K</title>
  <defs>
    <linearGradient id="bodymaddoggk150k" x1="0" y1="0" x2="0" y2="1">
      <stop offset="0" stop-color="#2a2c31"/>
      <stop offset="1" stop-color="#17181c"/>
    </linearGradient>
    <linearGradient id="idlemaddoggk150k" x1="0" y1="0" x2="0" y2="1">
      <stop offset="0" stop-color="#1e2027"/>
      <stop offset="1" stop-color="#0e0f13"/>
    </linearGradient>
    <linearGradient id="glossmaddoggk150k" x1="0" y1="0" x2="0" y2="1">
      <stop offset="0" stop-color="#ffffff" stop-opacity="0.14"/>
      <stop offset="0.45" stop-color="#ffffff" stop-opacity="0.02"/>
      <stop offset="1" stop-color="#000000" stop-opacity="0.18"/>
    </linearGradient>
    <linearGradient id="knobmaddoggk150k" x1="0" y1="0" x2="0" y2="1">
      <stop offset="0" stop-color="#2a2c31"/>
      <stop offset="1" stop-color="#0c0d10"/>
    </linearGradient>
    <filter id="shadowmaddoggk150k" x="-20%" y="-20%" width="140%" height="150%">
      <feDropShadow dx="0" dy="6" stdDeviation="9" flood-color="#000000" flood-opacity="0.35"/>
    </filter>
  </defs>

  <!-- stand -->
  <path d="M 126.2 38 H 420.8 L 460.08 329 H 86.91999999999999 Z" fill="#0c0d10" opacity="0.85"/>

  <!-- chassis -->
  <g filter="url(#shadowmaddoggk150k)">
    <rect x="28" y="28" width="491" height="288" rx="14" fill="url(#bodymaddoggk150k)"/>
    <rect x="28.5" y="28.5" width="490" height="287" rx="13.5" fill="none" stroke="#ffffff" stroke-opacity="0.10"/>
  </g>
  

  <!-- key panel recess -->
  <rect x="45" y="45" width="457" height="238" rx="14" fill="#000000" opacity="0.22"/>

  <!-- keys -->
  <g><g transform="translate(52,52)"><rect width="62" height="62" rx="9" fill="#0c0d10"/><rect x="1" y="1" width="60" height="60" rx="8" fill="url(#idlemaddoggk150k)"/><rect x="1" y="1" width="60" height="60" rx="8" fill="url(#glossmaddoggk150k)"/><rect x="1.5" y="1.5" width="59" height="59" rx="7.5" fill="none" stroke="#ffffff" stroke-opacity="0.07"/></g><g transform="translate(133,52)"><rect width="62" height="62" rx="9" fill="#0c0d10"/><rect x="1" y="1" width="60" height="60" rx="8" fill="url(#idlemaddoggk150k)"/><rect x="1" y="1" width="60" height="60" rx="8" fill="url(#glossmaddoggk150k)"/><rect x="1.5" y="1.5" width="59" height="59" rx="7.5" fill="none" stroke="#ffffff" stroke-opacity="0.07"/></g><g transform="translate(214,52)"><rect width="62" height="62" rx="9" fill="#0c0d10"/><rect x="1" y="1" width="60" height="60" rx="8" fill="url(#idlemaddoggk150k)"/><rect x="1" y="1" width="60" height="60" rx="8" fill="url(#glossmaddoggk150k)"/><rect x="1.5" y="1.5" width="59" height="59" rx="7.5" fill="none" stroke="#ffffff" stroke-opacity="0.07"/></g><g transform="translate(295,52)"><rect width="62" height="62" rx="9" fill="#0c0d10"/><rect x="1" y="1" width="60" height="60" rx="8" fill="url(#idlemaddoggk150k)"/><rect x="1" y="1" width="60" height="60" rx="8" fill="#94d82d" opacity="0.85"/><rect x="1" y="1" width="60" height="60" rx="8" fill="url(#glossmaddoggk150k)"/><rect x="1.5" y="1.5" width="59" height="59" rx="7.5" fill="none" stroke="#ffffff" stroke-opacity="0.07"/></g><g transform="translate(376,52)"><rect width="62" height="62" rx="9" fill="#0c0d10"/><rect x="1" y="1" width="60" height="60" rx="8" fill="url(#idlemaddoggk150k)"/><rect x="1" y="1" width="60" height="60" rx="8" fill="#94d82d" opacity="0.76"/><rect x="1" y="1" width="60" height="60" rx="8" fill="url(#glossmaddoggk150k)"/><rect x="1.5" y="1.5" width="59" height="59" rx="7.5" fill="none" stroke="#ffffff" stroke-opacity="0.07"/></g><g transform="translate(52,133)"><rect width="62" height="62" rx="9" fill="#0c0d10"/><rect x="1" y="1" width="60" height="60" rx="8" fill="url(#idlemaddoggk150k)"/><rect x="1" y="1" width="60" height="60" rx="8" fill="url(#glossmaddoggk150k)"/><rect x="1.5" y="1.5" width="59" height="59" rx="7.5" fill="none" stroke="#ffffff" stroke-opacity="0.07"/></g><g transform="translate(133,133)"><rect width="62" height="62" rx="9" fill="#0c0d10"/><rect x="1" y="1" width="60" height="60" rx="8" fill="url(#idlemaddoggk150k)"/><rect x="1" y="1" width="60" height="60" rx="8" fill="#94d82d" opacity="0.91"/><rect x="1" y="1" width="60" height="60" rx="8" fill="url(#glossmaddoggk150k)"/><rect x="1.5" y="1.5" width="59" height="59" rx="7.5" fill="none" stroke="#ffffff" stroke-opacity="0.07"/></g><g transform="translate(214,133)"><rect width="62" height="62" rx="9" fill="#0c0d10"/><rect x="1" y="1" width="60" height="60" rx="8" fill="url(#idlemaddoggk150k)"/><rect x="1" y="1" width="60" height="60" rx="8" fill="url(#glossmaddoggk150k)"/><rect x="1.5" y="1.5" width="59" height="59" rx="7.5" fill="none" stroke="#ffffff" stroke-opacity="0.07"/></g><g transform="translate(295,133)"><rect width="62" height="62" rx="9" fill="#0c0d10"/><rect x="1" y="1" width="60" height="60" rx="8" fill="url(#idlemaddoggk150k)"/><rect x="1" y="1" width="60" height="60" rx="8" fill="url(#glossmaddoggk150k)"/><rect x="1.5" y="1.5" width="59" height="59" rx="7.5" fill="none" stroke="#ffffff" stroke-opacity="0.07"/></g><g transform="translate(376,133)"><rect width="62" height="62" rx="9" fill="#0c0d10"/><rect x="1" y="1" width="60" height="60" rx="8" fill="url(#idlemaddoggk150k)"/><rect x="1" y="1" width="60" height="60" rx="8" fill="url(#glossmaddoggk150k)"/><rect x="1.5" y="1.5" width="59" height="59" rx="7.5" fill="none" stroke="#ffffff" stroke-opacity="0.07"/></g><g transform="translate(52,214)"><rect width="62" height="62" rx="9" fill="#0c0d10"/><rect x="1" y="1" width="60" height="60" rx="8" fill="url(#idlemaddoggk150k)"/><rect x="1" y="1" width="60" height="60" rx="8" fill="#94d82d" opacity="0.89"/><rect x="1" y="1" width="60" height="60" rx="8" fill="url(#glossmaddoggk150k)"/><rect x="1.5" y="1.5" width="59" height="59" rx="7.5" fill="none" stroke="#ffffff" stroke-opacity="0.07"/></g><g transform="translate(133,214)"><rect width="62" height="62" rx="9" fill="#0c0d10"/><rect x="1" y="1" width="60" height="60" rx="8" fill="url(#idlemaddoggk150k)"/><rect x="1" y="1" width="60" height="60" rx="8" fill="url(#glossmaddoggk150k)"/><rect x="1.5" y="1.5" width="59" height="59" rx="7.5" fill="none" stroke="#ffffff" stroke-opacity="0.07"/></g><g transform="translate(214,214)"><rect width="62" height="62" rx="9" fill="#0c0d10"/><rect x="1" y="1" width="60" height="60" rx="8" fill="url(#idlemaddoggk150k)"/><rect x="1" y="1" width="60" height="60" rx="8" fill="url(#glossmaddoggk150k)"/><rect x="1.5" y="1.5" width="59" height="59" rx="7.5" fill="none" stroke="#ffffff" stroke-opacity="0.07"/></g><g transform="translate(295,214)"><rect width="62" height="62" rx="9" fill="#0c0d10"/><rect x="1" y="1" width="60" height="60" rx="8" fill="url(#idlemaddoggk150k)"/><rect x="1" y="1" width="60" height="60" rx="8" fill="#94d82d" opacity="0.81"/><rect x="1" y="1" width="60" height="60" rx="8" fill="url(#glossmaddoggk150k)"/><rect x="1.5" y="1.5" width="59" height="59" rx="7.5" fill="none" stroke="#ffffff" stroke-opacity="0.07"/></g><g transform="translate(376,214)"><rect width="62" height="62" rx="9" fill="#0c0d10"/><rect x="1" y="1" width="60" height="60" rx="8" fill="url(#idlemaddoggk150k)"/><rect x="1" y="1" width="60" height="60" rx="8" fill="url(#glossmaddoggk150k)"/><rect x="1.5" y="1.5" width="59" height="59" rx="7.5" fill="none" stroke="#ffffff" stroke-opacity="0.07"/></g></g>
  <g transform="translate(457,52)"><rect width="38" height="224" rx="6" fill="#0c0d10"/><rect x="1" y="1" width="36" height="222" rx="5" fill="url(#idlemaddoggk150k)"/><rect x="7" y="30.3" width="24" height="4" rx="2" fill="#94d82d" opacity="0.62"/><rect x="7" y="38.3" width="17.364" height="3" rx="1.5" fill="#ffffff" opacity="0.16"/><rect x="7" y="105.0" width="24" height="4" rx="2" fill="#94d82d" opacity="0.31"/><rect x="7" y="113.0" width="9.936" height="3" rx="1.5" fill="#ffffff" opacity="0.16"/><rect x="6" y="74.7" width="26" height="1" fill="#ffffff" opacity="0.10"/><rect x="7" y="179.7" width="24" height="4" rx="2" fill="#94d82d" opacity="0.74"/><rect x="7" y="187.7" width="20.22" height="3" rx="1.5" fill="#ffffff" opacity="0.16"/><rect x="6" y="149.3" width="26" height="1" fill="#ffffff" opacity="0.10"/><rect x="1" y="1" width="36" height="222" rx="5" fill="url(#glossmaddoggk150k)"/></g>
  

  <!-- wordmark + grid caption -->
  <text x="495" y="301" text-anchor="end" font-family="Inter, Helvetica Neue, Arial, sans-serif" font-size="13" font-weight="600" letter-spacing="2.4" fill="#8d939f">MAD DOG</text>
  <text x="52" y="301" font-family="Inter, Helvetica Neue, Arial, sans-serif" font-size="12" fill="#8d939f" opacity="0.7">5×3 + 3</text>
</svg>
