<svg xmlns="http://www.w3.org/2000/svg" viewBox="0 0 494 346" width="494" height="346" role="img" aria-label="Mirabox 293V3 — 5×3 key stream deck">
  <title>Mirabox 293V3</title>
  <defs>
    <linearGradient id="bodymirabox293" x1="0" y1="0" x2="0" y2="1">
      <stop offset="0" stop-color="#2a2c31"/>
      <stop offset="1" stop-color="#17181c"/>
    </linearGradient>
    <linearGradient id="idlemirabox293" x1="0" y1="0" x2="0" y2="1">
      <stop offset="0" stop-color="#1e2027"/>
      <stop offset="1" stop-color="#0e0f13"/>
    </linearGradient>
    <linearGradient id="glossmirabox293" x1="0" y1="0" x2="0" y2="1">
      <stop offset="0" stop-color="#ffffff" stop-opacity="0.14"/>
      <stop offset="0.45" stop-color="#ffffff" stop-opacity="0.02"/>
      <stop offset="1" stop-color="#000000" stop-opacity="0.18"/>
    </linearGradient>
    <linearGradient id="knobmirabox293" x1="0" y1="0" x2="0" y2="1">
      <stop offset="0" stop-color="#2a2c31"/>
      <stop offset="1" stop-color="#0c0d10"/>
    </linearGradient>
    <filter id="shadowmirabox293" x="-20%" y="-20%" width="140%" height="150%">
      <feDropShadow dx="0" dy="6" stdDeviation="9" flood-color="#000000" flood-opacity="0.35"/>
    </filter>
  </defs>

  <!-- stand -->
  <rect x="124.36" y="312" width="9" height="18" rx="3" fill="#0c0d10" opacity="0.85"/><rect x="360.64" y="312" width="9" height="18" rx="3" fill="#0c0d10" opacity="0.85"/><rect x="106.84" y="326" width="280.32" height="6" rx="3" fill="#0c0d10" opacity="0.7"/>

  <!-- chassis -->
  <g filter="url(#shadowmirabox293)">
    <rect x="28" y="28" width="438" height="290" rx="10" fill="url(#bodymirabox293)"/>
    <rect x="28.5" y="28.5" width="437" height="289" rx="9.5" fill="none" stroke="#ffffff" stroke-opacity="0.10"/>
  </g>
  

  <!-- key panel recess -->
  <rect x="45" y="45" width="404" height="240" rx="14" fill="#000000" opacity="0.22"/>

  <!-- keys -->
  <g><g transform="translate(52,52)"><rect width="62" height="62" rx="9" fill="#0c0d10"/><rect x="1" y="1" width="60" height="60" rx="8" fill="url(#idlemirabox293)"/><rect x="1" y="1" width="60" height="60" rx="8" fill="url(#glossmirabox293)"/><rect x="1.5" y="1.5" width="59" height="59" rx="7.5" fill="none" stroke="#ffffff" stroke-opacity="0.07"/></g><g transform="translate(134,52)"><rect width="62" height="62" rx="9" fill="#0c0d10"/><rect x="1" y="1" width="60" height="60" rx="8" fill="url(#idlemirabox293)"/><rect x="1" y="1" width="60" height="60" rx="8" fill="url(#glossmirabox293)"/><rect x="1.5" y="1.5" width="59" height="59" rx="7.5" fill="none" stroke="#ffffff" stroke-opacity="0.07"/></g><g transform="translate(216,52)"><rect width="62" height="62" rx="9" fill="#0c0d10"/><rect x="1" y="1" width="60" height="60" rx="8" fill="url(#idlemirabox293)"/><rect x="1" y="1" width="60" height="60" rx="8" fill="url(#glossmirabox293)"/><rect x="1.5" y="1.5" width="59" height="59" rx="7.5" fill="none" stroke="#ffffff" stroke-opacity="0.07"/></g><g transform="translate(298,52)"><rect width="62" height="62" rx="9" fill="#0c0d10"/><rect x="1" y="1" width="60" height="60" rx="8" fill="url(#idlemirabox293)"/><rect x="1" y="1" width="60" height="60" rx="8" fill="#22b8cf" opacity="0.86"/><rect x="1" y="1" width="60" height="60" rx="8" fill="url(#glossmirabox293)"/><rect x="1.5" y="1.5" width="59" height="59" rx="7.5" fill="none" stroke="#ffffff" stroke-opacity="0.07"/></g><g transform="translate(380,52)"><rect width="62" height="62" rx="9" fill="#0c0d10"/><rect x="1" y="1" width="60" height="60" rx="8" fill="url(#idlemirabox293)"/><rect x="1" y="1" width="60" height="60" rx="8" fill="#22b8cf" opacity="0.95"/><rect x="1" y="1" width="60" height="60" rx="8" fill="url(#glossmirabox293)"/><rect x="1.5" y="1.5" width="59" height="59" rx="7.5" fill="none" stroke="#ffffff" stroke-opacity="0.07"/></g><g transform="translate(52,134)"><rect width="62" height="62" rx="9" fill="#0c0d10"/><rect x="1" y="1" width="60" height="60" rx="8" fill="url(#idlemirabox293)"/><rect x="1" y="1" width="60" height="60" rx="8" fill="url(#glossmirabox293)"/><rect x="1.5" y="1.5" width="59" height="59" rx="7.5" fill="none" stroke="#ffffff" stroke-opacity="0.07"/></g><g transform="translate(134,134)"><rect width="62" height="62" rx="9" fill="#0c0d10"/><rect x="1" y="1" width="60" height="60" rx="8" fill="url(#idlemirabox293)"/><rect x="1" y="1" width="60" height="60" rx="8" fill="#22b8cf" opacity="0.81"/><rect x="1" y="1" width="60" height="60" rx="8" fill="url(#glossmirabox293)"/><rect x="1.5" y="1.5" width="59" height="59" rx="7.5" fill="none" stroke="#ffffff" stroke-opacity="0.07"/></g><g transform="translate(216,134)"><rect width="62" height="62" rx="9" fill="#0c0d10"/><rect x="1" y="1" width="60" height="60" rx="8" fill="url(#idlemirabox293)"/><rect x="1" y="1" width="60" height="60" rx="8" fill="url(#glossmirabox293)"/><rect x="1.5" y="1.5" width="59" height="59" rx="7.5" fill="none" stroke="#ffffff" stroke-opacity="0.07"/></g><g transform="translate(298,134)"><rect width="62" height="62" rx="9" fill="#0c0d10"/><rect x="1" y="1" width="60" height="60" rx="8" fill="url(#idlemirabox293)"/><rect x="1" y="1" width="60" height="60" rx="8" fill="url(#glossmirabox293)"/><rect x="1.5" y="1.5" width="59" height="59" rx="7.5" fill="none" stroke="#ffffff" stroke-opacity="0.07"/></g><g transform="translate(380,134)"><rect width="62" height="62" rx="9" fill="#0c0d10"/><rect x="1" y="1" width="60" height="60" rx="8" fill="url(#idlemirabox293)"/><rect x="1" y="1" width="60" height="60" rx="8" fill="url(#glossmirabox293)"/><rect x="1.5" y="1.5" width="59" height="59" rx="7.5" fill="none" stroke="#ffffff" stroke-opacity="0.07"/></g><g transform="translate(52,216)"><rect width="62" height="62" rx="9" fill="#0c0d10"/><rect x="1" y="1" width="60" height="60" rx="8" fill="url(#idlemirabox293)"/><rect x="1" y="1" width="60" height="60" rx="8" fill="url(#glossmirabox293)"/><rect x="1.5" y="1.5" width="59" height="59" rx="7.5" fill="none" stroke="#ffffff" stroke-opacity="0.07"/></g><g transform="translate(134,216)"><rect width="62" height="62" rx="9" fill="#0c0d10"/><rect x="1" y="1" width="60" height="60" rx="8" fill="url(#idlemirabox293)"/><rect x="1" y="1" width="60" height="60" rx="8" fill="#22b8cf" opacity="0.87"/><rect x="1" y="1" width="60" height="60" rx="8" fill="url(#glossmirabox293)"/><rect x="1.5" y="1.5" width="59" height="59" rx="7.5" fill="none" stroke="#ffffff" stroke-opacity="0.07"/></g><g transform="translate(216,216)"><rect width="62" height="62" rx="9" fill="#0c0d10"/><rect x="1" y="1" width="60" height="60" rx="8" fill="url(#idlemirabox293)"/><rect x="1" y="1" width="60" height="60" rx="8" fill="#22b8cf" opacity="0.78"/><rect x="1" y="1" width="60" height="60" rx="8" fill="url(#glossmirabox293)"/><rect x="1.5" y="1.5" width="59" height="59" rx="7.5" fill="none" stroke="#ffffff" stroke-opacity="0.07"/></g><g transform="translate(298,216)"><rect width="62" height="62" rx="9" fill="#0c0d10"/><rect x="1" y="1" width="60" height="60" rx="8" fill="url(#idlemirabox293)"/><rect x="1" y="1" width="60" height="60" rx="8" fill="url(#glossmirabox293)"/><rect x="1.5" y="1.5" width="59" height="59" rx="7.5" fill="none" stroke="#ffffff" stroke-opacity="0.07"/></g><g transform="translate(380,216)"><rect width="62" height="62" rx="9" fill="#0c0d10"/><rect x="1" y="1" width="60" height="60" rx="8" fill="url(#idlemirabox293)"/><rect x="1" y="1" width="60" height="60" rx="8" fill="url(#glossmirabox293)"/><rect x="1.5" y="1.5" width="59" height="59" rx="7.5" fill="none" stroke="#ffffff" stroke-opacity="0.07"/></g></g>
  
  

  <!-- wordmark + grid caption -->
  <text x="442" y="303" text-anchor="end" font-family="Inter, Helvetica Neue, Arial, sans-serif" font-size="13" font-weight="600" letter-spacing="2.4" fill="#8d939f">MIRABOX</text>
  <text x="52" y="303" font-family="Inter, Helvetica Neue, Arial, sans-serif" font-size="12" fill="#8d939f" opacity="0.7">5×3</text>
</svg>
