<svg xmlns="http://www.w3.org/2000/svg" viewBox="0 0 527 336" width="527" height="336" role="img" aria-label="Mirabox 293S — 5×3 + 3 key stream deck">
  <title>Mirabox 293S</title>
  <defs>
    <linearGradient id="bodymirabox293s" x1="0" y1="0" x2="0" y2="1">
      <stop offset="0" stop-color="#2a2c31"/>
      <stop offset="1" stop-color="#17181c"/>
    </linearGradient>
    <linearGradient id="idlemirabox293s" x1="0" y1="0" x2="0" y2="1">
      <stop offset="0" stop-color="#1e2027"/>
      <stop offset="1" stop-color="#0e0f13"/>
    </linearGradient>
    <linearGradient id="glossmirabox293s" x1="0" y1="0" x2="0" y2="1">
      <stop offset="0" stop-color="#ffffff" stop-opacity="0.14"/>
      <stop offset="0.45" stop-color="#ffffff" stop-opacity="0.02"/>
      <stop offset="1" stop-color="#000000" stop-opacity="0.18"/>
    </linearGradient>
    <linearGradient id="knobmirabox293s" x1="0" y1="0" x2="0" y2="1">
      <stop offset="0" stop-color="#2a2c31"/>
      <stop offset="1" stop-color="#0c0d10"/>
    </linearGradient>
    <filter id="shadowmirabox293s" x="-20%" y="-20%" width="140%" height="150%">
      <feDropShadow dx="0" dy="6" stdDeviation="9" flood-color="#000000" flood-opacity="0.35"/>
    </filter>
  </defs>

  <!-- stand -->
  <path d="M 122.2 38 H 404.8 L 442.48 321 H 84.52 Z" fill="#0c0d10" opacity="0.85"/>

  <!-- chassis -->
  <g filter="url(#shadowmirabox293s)">
    <rect x="28" y="28" width="471" height="280" rx="14" fill="url(#bodymirabox293s)"/>
    <rect x="28.5" y="28.5" width="470" height="279" rx="13.5" fill="none" stroke="#ffffff" stroke-opacity="0.10"/>
  </g>
  

  <!-- key panel recess -->
  <rect x="45" y="61" width="437" height="230" rx="14" fill="#000000" opacity="0.22"/>

  <!-- keys -->
  <g><g transform="translate(52,68)"><rect width="62" height="62" rx="9" fill="#0c0d10"/><rect x="1" y="1" width="60" height="60" rx="8" fill="url(#idlemirabox293s)"/><rect x="1" y="1" width="60" height="60" rx="8" fill="#22b8cf" opacity="0.87"/><rect x="1" y="1" width="60" height="60" rx="8" fill="url(#glossmirabox293s)"/><rect x="1.5" y="1.5" width="59" height="59" rx="7.5" fill="none" stroke="#ffffff" stroke-opacity="0.07"/></g><g transform="translate(129,68)"><rect width="62" height="62" rx="9" fill="#0c0d10"/><rect x="1" y="1" width="60" height="60" rx="8" fill="url(#idlemirabox293s)"/><rect x="1" y="1" width="60" height="60" rx="8" fill="url(#glossmirabox293s)"/><rect x="1.5" y="1.5" width="59" height="59" rx="7.5" fill="none" stroke="#ffffff" stroke-opacity="0.07"/></g><g transform="translate(206,68)"><rect width="62" height="62" rx="9" fill="#0c0d10"/><rect x="1" y="1" width="60" height="60" rx="8" fill="url(#idlemirabox293s)"/><rect x="1" y="1" width="60" height="60" rx="8" fill="url(#glossmirabox293s)"/><rect x="1.5" y="1.5" width="59" height="59" rx="7.5" fill="none" stroke="#ffffff" stroke-opacity="0.07"/></g><g transform="translate(283,68)"><rect width="62" height="62" rx="9" fill="#0c0d10"/><rect x="1" y="1" width="60" height="60" rx="8" fill="url(#idlemirabox293s)"/><rect x="1" y="1" width="60" height="60" rx="8" fill="url(#glossmirabox293s)"/><rect x="1.5" y="1.5" width="59" height="59" rx="7.5" fill="none" stroke="#ffffff" stroke-opacity="0.07"/></g><g transform="translate(360,68)"><rect width="62" height="62" rx="9" fill="#0c0d10"/><rect x="1" y="1" width="60" height="60" rx="8" fill="url(#idlemirabox293s)"/><rect x="1" y="1" width="60" height="60" rx="8" fill="url(#glossmirabox293s)"/><rect x="1.5" y="1.5" width="59" height="59" rx="7.5" fill="none" stroke="#ffffff" stroke-opacity="0.07"/></g><g transform="translate(52,145)"><rect width="62" height="62" rx="9" fill="#0c0d10"/><rect x="1" y="1" width="60" height="60" rx="8" fill="url(#idlemirabox293s)"/><rect x="1" y="1" width="60" height="60" rx="8" fill="#22b8cf" opacity="0.78"/><rect x="1" y="1" width="60" height="60" rx="8" fill="url(#glossmirabox293s)"/><rect x="1.5" y="1.5" width="59" height="59" rx="7.5" fill="none" stroke="#ffffff" stroke-opacity="0.07"/></g><g transform="translate(129,145)"><rect width="62" height="62" rx="9" fill="#0c0d10"/><rect x="1" y="1" width="60" height="60" rx="8" fill="url(#idlemirabox293s)"/><rect x="1" y="1" width="60" height="60" rx="8" fill="url(#glossmirabox293s)"/><rect x="1.5" y="1.5" width="59" height="59" rx="7.5" fill="none" stroke="#ffffff" stroke-opacity="0.07"/></g><g transform="translate(206,145)"><rect width="62" height="62" rx="9" fill="#0c0d10"/><rect x="1" y="1" width="60" height="60" rx="8" fill="url(#idlemirabox293s)"/><rect x="1" y="1" width="60" height="60" rx="8" fill="#22b8cf" opacity="0.92"/><rect x="1" y="1" width="60" height="60" rx="8" fill="url(#glossmirabox293s)"/><rect x="1.5" y="1.5" width="59" height="59" rx="7.5" fill="none" stroke="#ffffff" stroke-opacity="0.07"/></g><g transform="translate(283,145)"><rect width="62" height="62" rx="9" fill="#0c0d10"/><rect x="1" y="1" width="60" height="60" rx="8" fill="url(#idlemirabox293s)"/><rect x="1" y="1" width="60" height="60" rx="8" fill="#22b8cf" opacity="0.89"/><rect x="1" y="1" width="60" height="60" rx="8" fill="url(#glossmirabox293s)"/><rect x="1.5" y="1.5" width="59" height="59" rx="7.5" fill="none" stroke="#ffffff" stroke-opacity="0.07"/></g><g transform="translate(360,145)"><rect width="62" height="62" rx="9" fill="#0c0d10"/><rect x="1" y="1" width="60" height="60" rx="8" fill="url(#idlemirabox293s)"/><rect x="1" y="1" width="60" height="60" rx="8" fill="url(#glossmirabox293s)"/><rect x="1.5" y="1.5" width="59" height="59" rx="7.5" fill="none" stroke="#ffffff" stroke-opacity="0.07"/></g><g transform="translate(52,222)"><rect width="62" height="62" rx="9" fill="#0c0d10"/><rect x="1" y="1" width="60" height="60" rx="8" fill="url(#idlemirabox293s)"/><rect x="1" y="1" width="60" height="60" rx="8" fill="url(#glossmirabox293s)"/><rect x="1.5" y="1.5" width="59" height="59" rx="7.5" fill="none" stroke="#ffffff" stroke-opacity="0.07"/></g><g transform="translate(129,222)"><rect width="62" height="62" rx="9" fill="#0c0d10"/><rect x="1" y="1" width="60" height="60" rx="8" fill="url(#idlemirabox293s)"/><rect x="1" y="1" width="60" height="60" rx="8" fill="#22b8cf" opacity="0.92"/><rect x="1" y="1" width="60" height="60" rx="8" fill="url(#glossmirabox293s)"/><rect x="1.5" y="1.5" width="59" height="59" rx="7.5" fill="none" stroke="#ffffff" stroke-opacity="0.07"/></g><g transform="translate(206,222)"><rect width="62" height="62" rx="9" fill="#0c0d10"/><rect x="1" y="1" width="60" height="60" rx="8" fill="url(#idlemirabox293s)"/><rect x="1" y="1" width="60" height="60" rx="8" fill="url(#glossmirabox293s)"/><rect x="1.5" y="1.5" width="59" height="59" rx="7.5" fill="none" stroke="#ffffff" stroke-opacity="0.07"/></g><g transform="translate(283,222)"><rect width="62" height="62" rx="9" fill="#0c0d10"/><rect x="1" y="1" width="60" height="60" rx="8" fill="url(#idlemirabox293s)"/><rect x="1" y="1" width="60" height="60" rx="8" fill="url(#glossmirabox293s)"/><rect x="1.5" y="1.5" width="59" height="59" rx="7.5" fill="none" stroke="#ffffff" stroke-opacity="0.07"/></g><g transform="translate(360,222)"><rect width="62" height="62" rx="9" fill="#0c0d10"/><rect x="1" y="1" width="60" height="60" rx="8" fill="url(#idlemirabox293s)"/><rect x="1" y="1" width="60" height="60" rx="8" fill="#22b8cf" opacity="0.83"/><rect x="1" y="1" width="60" height="60" rx="8" fill="url(#glossmirabox293s)"/><rect x="1.5" y="1.5" width="59" height="59" rx="7.5" fill="none" stroke="#ffffff" stroke-opacity="0.07"/></g></g>
  <g transform="translate(437,68)"><rect width="38" height="216" rx="6" fill="#0c0d10"/><rect x="1" y="1" width="36" height="214" rx="5" fill="url(#idlemirabox293s)"/><rect x="7" y="29.0" width="24" height="4" rx="2" fill="#22b8cf" opacity="0.52"/><rect x="7" y="37.0" width="14.772000000000002" height="3" rx="1.5" fill="#ffffff" opacity="0.16"/><rect x="7" y="101.0" width="24" height="4" rx="2" fill="#22b8cf" opacity="0.71"/><rect x="7" y="109.0" width="19.344" height="3" rx="1.5" fill="#ffffff" opacity="0.16"/><rect x="6" y="72.0" width="26" height="1" fill="#ffffff" opacity="0.10"/><rect x="7" y="173.0" width="24" height="4" rx="2" fill="#22b8cf" opacity="0.63"/><rect x="7" y="181.0" width="17.628" height="3" rx="1.5" fill="#ffffff" opacity="0.16"/><rect x="6" y="144.0" width="26" height="1" fill="#ffffff" opacity="0.10"/><rect x="1" y="1" width="36" height="214" rx="5" fill="url(#glossmirabox293s)"/></g>
  

  <!-- wordmark + grid caption -->
  <text x="263.5" y="53" text-anchor="middle" font-family="Inter, Helvetica Neue, Arial, sans-serif" font-size="13" font-weight="600" letter-spacing="2.4" fill="#8d939f">MIRABOX</text>
  <text x="475" y="53" text-anchor="end" font-family="Inter, Helvetica Neue, Arial, sans-serif" font-size="12" fill="#8d939f" opacity="0.7">5×3 + 3</text>
</svg>
