<svg xmlns="http://www.w3.org/2000/svg" viewBox="0 0 547 344" width="547" height="344" role="img" aria-label="TMICE Stream Controller — 5×3 + 3 key stream deck">
  <title>TMICE Stream Controller</title>
  <defs>
    <linearGradient id="bodytmicestreamcontroller" x1="0" y1="0" x2="0" y2="1">
      <stop offset="0" stop-color="#23252b"/>
      <stop offset="1" stop-color="#121317"/>
    </linearGradient>
    <linearGradient id="idletmicestreamcontroller" x1="0" y1="0" x2="0" y2="1">
      <stop offset="0" stop-color="#1e2027"/>
      <stop offset="1" stop-color="#0e0f13"/>
    </linearGradient>
    <linearGradient id="glosstmicestreamcontroller" x1="0" y1="0" x2="0" y2="1">
      <stop offset="0" stop-color="#ffffff" stop-opacity="0.14"/>
      <stop offset="0.45" stop-color="#ffffff" stop-opacity="0.02"/>
      <stop offset="1" stop-color="#000000" stop-opacity="0.18"/>
    </linearGradient>
    <linearGradient id="knobtmicestreamcontroller" x1="0" y1="0" x2="0" y2="1">
      <stop offset="0" stop-color="#23252b"/>
      <stop offset="1" stop-color="#08090b"/>
    </linearGradient>
    <filter id="shadowtmicestreamcontroller" x="-20%" y="-20%" width="140%" height="150%">
      <feDropShadow dx="0" dy="6" stdDeviation="9" flood-color="#000000" flood-opacity="0.35"/>
    </filter>
  </defs>

  <!-- stand -->
  <path d="M 32 290 H 515 L 525 330 H 22 Z" fill="#121317" opacity="0.95"/>

  <!-- chassis -->
  <g filter="url(#shadowtmicestreamcontroller)">
    <rect x="28" y="28" width="491" height="288" rx="14" fill="url(#bodytmicestreamcontroller)"/>
    <rect x="28.5" y="28.5" width="490" height="287" rx="13.5" fill="none" stroke="#ffffff" stroke-opacity="0.10"/>
  </g>
  

  <!-- key panel recess -->
  <rect x="45" y="61" width="457" height="238" rx="14" fill="#000000" opacity="0.22"/>

  <!-- keys -->
  <g><g transform="translate(52,68)"><rect width="62" height="62" rx="9" fill="#08090b"/><rect x="1" y="1" width="60" height="60" rx="8" fill="url(#idletmicestreamcontroller)"/><rect x="1" y="1" width="60" height="60" rx="8" fill="#20c997" opacity="0.86"/><rect x="1" y="1" width="60" height="60" rx="8" fill="url(#glosstmicestreamcontroller)"/><rect x="1.5" y="1.5" width="59" height="59" rx="7.5" fill="none" stroke="#ffffff" stroke-opacity="0.07"/></g><g transform="translate(133,68)"><rect width="62" height="62" rx="9" fill="#08090b"/><rect x="1" y="1" width="60" height="60" rx="8" fill="url(#idletmicestreamcontroller)"/><rect x="1" y="1" width="60" height="60" rx="8" fill="url(#glosstmicestreamcontroller)"/><rect x="1.5" y="1.5" width="59" height="59" rx="7.5" fill="none" stroke="#ffffff" stroke-opacity="0.07"/></g><g transform="translate(214,68)"><rect width="62" height="62" rx="9" fill="#08090b"/><rect x="1" y="1" width="60" height="60" rx="8" fill="url(#idletmicestreamcontroller)"/><rect x="1" y="1" width="60" height="60" rx="8" fill="url(#glosstmicestreamcontroller)"/><rect x="1.5" y="1.5" width="59" height="59" rx="7.5" fill="none" stroke="#ffffff" stroke-opacity="0.07"/></g><g transform="translate(295,68)"><rect width="62" height="62" rx="9" fill="#08090b"/><rect x="1" y="1" width="60" height="60" rx="8" fill="url(#idletmicestreamcontroller)"/><rect x="1" y="1" width="60" height="60" rx="8" fill="#20c997" opacity="0.94"/><rect x="1" y="1" width="60" height="60" rx="8" fill="url(#glosstmicestreamcontroller)"/><rect x="1.5" y="1.5" width="59" height="59" rx="7.5" fill="none" stroke="#ffffff" stroke-opacity="0.07"/></g><g transform="translate(376,68)"><rect width="62" height="62" rx="9" fill="#08090b"/><rect x="1" y="1" width="60" height="60" rx="8" fill="url(#idletmicestreamcontroller)"/><rect x="1" y="1" width="60" height="60" rx="8" fill="url(#glosstmicestreamcontroller)"/><rect x="1.5" y="1.5" width="59" height="59" rx="7.5" fill="none" stroke="#ffffff" stroke-opacity="0.07"/></g><g transform="translate(52,149)"><rect width="62" height="62" rx="9" fill="#08090b"/><rect x="1" y="1" width="60" height="60" rx="8" fill="url(#idletmicestreamcontroller)"/><rect x="1" y="1" width="60" height="60" rx="8" fill="#20c997" opacity="0.80"/><rect x="1" y="1" width="60" height="60" rx="8" fill="url(#glosstmicestreamcontroller)"/><rect x="1.5" y="1.5" width="59" height="59" rx="7.5" fill="none" stroke="#ffffff" stroke-opacity="0.07"/></g><g transform="translate(133,149)"><rect width="62" height="62" rx="9" fill="#08090b"/><rect x="1" y="1" width="60" height="60" rx="8" fill="url(#idletmicestreamcontroller)"/><rect x="1" y="1" width="60" height="60" rx="8" fill="url(#glosstmicestreamcontroller)"/><rect x="1.5" y="1.5" width="59" height="59" rx="7.5" fill="none" stroke="#ffffff" stroke-opacity="0.07"/></g><g transform="translate(214,149)"><rect width="62" height="62" rx="9" fill="#08090b"/><rect x="1" y="1" width="60" height="60" rx="8" fill="url(#idletmicestreamcontroller)"/><rect x="1" y="1" width="60" height="60" rx="8" fill="url(#glosstmicestreamcontroller)"/><rect x="1.5" y="1.5" width="59" height="59" rx="7.5" fill="none" stroke="#ffffff" stroke-opacity="0.07"/></g><g transform="translate(295,149)"><rect width="62" height="62" rx="9" fill="#08090b"/><rect x="1" y="1" width="60" height="60" rx="8" fill="url(#idletmicestreamcontroller)"/><rect x="1" y="1" width="60" height="60" rx="8" fill="#20c997" opacity="0.89"/><rect x="1" y="1" width="60" height="60" rx="8" fill="url(#glosstmicestreamcontroller)"/><rect x="1.5" y="1.5" width="59" height="59" rx="7.5" fill="none" stroke="#ffffff" stroke-opacity="0.07"/></g><g transform="translate(376,149)"><rect width="62" height="62" rx="9" fill="#08090b"/><rect x="1" y="1" width="60" height="60" rx="8" fill="url(#idletmicestreamcontroller)"/><rect x="1" y="1" width="60" height="60" rx="8" fill="url(#glosstmicestreamcontroller)"/><rect x="1.5" y="1.5" width="59" height="59" rx="7.5" fill="none" stroke="#ffffff" stroke-opacity="0.07"/></g><g transform="translate(52,230)"><rect width="62" height="62" rx="9" fill="#08090b"/><rect x="1" y="1" width="60" height="60" rx="8" fill="url(#idletmicestreamcontroller)"/><rect x="1" y="1" width="60" height="60" rx="8" fill="url(#glosstmicestreamcontroller)"/><rect x="1.5" y="1.5" width="59" height="59" rx="7.5" fill="none" stroke="#ffffff" stroke-opacity="0.07"/></g><g transform="translate(133,230)"><rect width="62" height="62" rx="9" fill="#08090b"/><rect x="1" y="1" width="60" height="60" rx="8" fill="url(#idletmicestreamcontroller)"/><rect x="1" y="1" width="60" height="60" rx="8" fill="#20c997" opacity="0.92"/><rect x="1" y="1" width="60" height="60" rx="8" fill="url(#glosstmicestreamcontroller)"/><rect x="1.5" y="1.5" width="59" height="59" rx="7.5" fill="none" stroke="#ffffff" stroke-opacity="0.07"/></g><g transform="translate(214,230)"><rect width="62" height="62" rx="9" fill="#08090b"/><rect x="1" y="1" width="60" height="60" rx="8" fill="url(#idletmicestreamcontroller)"/><rect x="1" y="1" width="60" height="60" rx="8" fill="url(#glosstmicestreamcontroller)"/><rect x="1.5" y="1.5" width="59" height="59" rx="7.5" fill="none" stroke="#ffffff" stroke-opacity="0.07"/></g><g transform="translate(295,230)"><rect width="62" height="62" rx="9" fill="#08090b"/><rect x="1" y="1" width="60" height="60" rx="8" fill="url(#idletmicestreamcontroller)"/><rect x="1" y="1" width="60" height="60" rx="8" fill="#20c997" opacity="0.78"/><rect x="1" y="1" width="60" height="60" rx="8" fill="url(#glosstmicestreamcontroller)"/><rect x="1.5" y="1.5" width="59" height="59" rx="7.5" fill="none" stroke="#ffffff" stroke-opacity="0.07"/></g><g transform="translate(376,230)"><rect width="62" height="62" rx="9" fill="#08090b"/><rect x="1" y="1" width="60" height="60" rx="8" fill="url(#idletmicestreamcontroller)"/><rect x="1" y="1" width="60" height="60" rx="8" fill="#20c997" opacity="0.84"/><rect x="1" y="1" width="60" height="60" rx="8" fill="url(#glosstmicestreamcontroller)"/><rect x="1.5" y="1.5" width="59" height="59" rx="7.5" fill="none" stroke="#ffffff" stroke-opacity="0.07"/></g></g>
  <g transform="translate(457,68)"><rect width="38" height="224" rx="6" fill="#08090b"/><rect x="1" y="1" width="36" height="222" rx="5" fill="url(#idletmicestreamcontroller)"/><rect x="7" y="30.3" width="24" height="4" rx="2" fill="#20c997" opacity="0.71"/><rect x="7" y="38.3" width="19.356" height="3" rx="1.5" fill="#ffffff" opacity="0.16"/><rect x="7" y="105.0" width="24" height="4" rx="2" fill="#20c997" opacity="0.40"/><rect x="7" y="113.0" width="11.928" height="3" rx="1.5" fill="#ffffff" opacity="0.16"/><rect x="6" y="74.7" width="26" height="1" fill="#ffffff" opacity="0.10"/><rect x="7" y="179.7" width="24" height="4" rx="2" fill="#20c997" opacity="0.59"/><rect x="7" y="187.7" width="16.5" height="3" rx="1.5" fill="#ffffff" opacity="0.16"/><rect x="6" y="149.3" width="26" height="1" fill="#ffffff" opacity="0.10"/><rect x="1" y="1" width="36" height="222" rx="5" fill="url(#glosstmicestreamcontroller)"/></g>
  

  <!-- wordmark + grid caption -->
  <text x="52" y="53" font-family="Inter, Helvetica Neue, Arial, sans-serif" font-size="13" font-weight="600" letter-spacing="2.4" fill="#848a96">TMICE</text>
  <text x="495" y="53" text-anchor="end" font-family="Inter, Helvetica Neue, Arial, sans-serif" font-size="12" fill="#848a96" opacity="0.7">5×3 + 3</text>
</svg>
